#!OML:ASF E:\emotionWalksFemale\Project 1\Capture day 1\Session 1\Female1.ASF
:FULLY-SPECIFIED
:DEGREES
1050
root 11.5229 15.2349 -36.6489 7.35258 77.9799 -356.093
lowerback 8.10508 2.91333 2.54254
upperback -2.58492 4.29674 1.52073
thorax -7.19693 2.0355 -0.435694
lowerneck -2.83446 -9.23584 -14.2223
upperneck 23.6224 -15.1188 19.8567
head 10.6798 -6.28094 8.03864
rclavicle -5.33116e-014 -3.73715e-014
rhumerus -36.2136 14.3071 -78.8972
rradius 52.9803
rwrist 13.0935
rhand -8.975 -53.0612
rfingers 7.12502
rthumb 16.9705 -442.34
lclavicle -5.33116e-014 -3.73715e-014
lhumerus -66.4546 -1.52628 87.7883
lradius 30.1546
lwrist -26.8728
lhand 9.9453 -26.1893
lfingers 7.12502
lthumb 35.0745 0.349343
rfemur 9.24077 17.0534 36.8476
rtibia 8.28288
rfoot -16.498 -29.777
rtoes 16.498
lfemur -33.7111 -9.21558 -14.0841
ltibia 39.2256
lfoot -20.8416 18.7957
ltoes -6.97249
1051
root 11.6886 15.2389 -36.6282 6.74182 77.3877 -356.802
lowerback 7.80148 2.93062 3.06359
upperback -2.45062 4.33788 1.26927
thorax -6.82028 2.03414 -0.970289
lowerneck -2.89459 -9.20978 -13.8546
upperneck 23.3384 -15.1054 19.9446
head 10.5585 -6.24552 7.98973
rclavicle 9.46712e-015 -8.74653e-015
rhumerus -35.5745 14.2045 -79.161
rradius 52.8282
rwrist 13.1976
rhand -9.34358 -52.3656
rfingers 7.12502
rthumb 16.6157 -441.674
lclavicle 9.46712e-015 -8.74653e-015
lhumerus -66.2616 -1.82711 87.5891
lradius 30.1294
lwrist -26.646
lhand 9.50496 -25.7344
lfingers 7.12502
lthumb 34.6567 0.90111
rfemur 11.137 16.8639 36.9022
rtibia 5.61473
rfoot -14.9792 -29.016
rtoes 15.2671
lfemur -34.0076 -11.5786 -12.8084
ltibia 36.5908
lfoot -21.958 19.7867
ltoes -5.035
1052
root 11.8536 15.241 -36.6087 5.80009 76.7756 -357.891
lowerback 7.72327 3.03698 3.0253
upperback -2.48082 4.49045 1.47636
thorax -6.82272 2.11665 -0.749343
lowerneck -3.00961 -9.27192 -13.7323
upperneck 23.324 -15.1313 19.6073
head 10.538 -6.27373 7.81987
rclavicle -3.15571e-014 1.59028e-014
rhumerus -35.1049 14.714 -78.8098
rradius 52.7452
rwrist 12.7862
rhand -9.74324 -52.262
rfingers 7.12502
rthumb 16.2309 -441.603
lclavicle -3.15571e-014 1.59028e-014
lhumerus -66.2182 -1.59741 87.5458
lradius 30.0069
lwrist -27.1494
lhand 9.03004 -25.8597
lfingers 7.12502
lthumb 34.2058 0.878102
rfemur 14.2732 16.7255 36.9663
rtibia 4.45278e-014
rfoot -11.1453 -28.0796
rtoes 12.7284
lfemur -34.3975 -14.4285 -11.1131
ltibia 34.1061
lfoot -23.483 21.2675
ltoes -4.16986
1053
root 12.0197 15.2164 -36.6075 4.8374 76.5212 -358.759
lowerback 7.84392 2.95203 3.38025
upperback -2.42326 4.42443 1.5642
thorax -6.8142 2.07197 -0.851297
lowerneck -3.15517 -9.28638 -13.3622
upperneck 23.299 -15.0828 19.1522
head 10.4706 -6.25466 7.56932
rclavicle -5.75979e-014 7.15625e-015
rhumerus -34.5301 15.2215 -78.5154
rradius 52.5796
rwrist 12.4368
rhand -9.88248 -52.751
rfingers 7.12502
rthumb 16.0968 -442.102
lclavicle -5.75979e-014 7.15625e-015
lhumerus -66.1245 -1.41807 87.334
lradius 29.9882
lwrist -27.779
lhand 8.47903 -26.0634
lfingers 7.12502
lthumb 33.6824 0.790316
rfemur 15.2044 16.1719 37.0794
rtibia 4.77083e-015
rfoot -12.1964 -27.1965
rtoes 15.1454
lfemur -34.8608 -17.7519 -9.3015
ltibia 31.9395
lfoot -24.0634 23.065
ltoes -6.71023
1054
root 12.1911 15.1951 -36.6036 3.80998 76.3004 -359.626
lowerback 7.97377 2.83541 3.7268
upperback -2.36718 4.32053 1.69808
thorax -6.81911 2.01028 -0.896122
lowerneck -3.16989 -9.23734 -13.5787
upperneck 23.2891 -15.0002 19.1681
head 10.473 -6.23862 7.62438
rclavicle -3.72224e-014 -5.56597e-015
rhumerus -34.0856 15.7644 -78.2103
rradius 52.4187
rwrist 12.2454
rhand -9.88856 -53.0543
rfingers 7.12502
rthumb 16.091 -442.406
lclavicle -3.72224e-014 -5.56597e-015
lhumerus -65.9705 -0.972394 86.7955
lradius 29.9108
lwrist -28.1159
lhand 8.60749 -26.4341
lfingers 7.12502
lthumb 33.8044 0.392819
rfemur 16.0963 15.5694 37.1899
rtibia -2.38542e-014
rfoot -12.4818 -26.5026
rtoes 14.6549
lfemur -35.4502 -21.2693 -7.27356
ltibia 30.093
lfoot -22.9846 25.5808
ltoes -16.438
1055
root 12.3604 15.175 -36.5803 2.58937 75.6661 -360.775
lowerback 8.04316 2.91593 3.81251
upperback -2.35588 4.45317 1.85139
thorax -6.8487 2.07554 -0.804796
lowerneck -3.05554 -9.17541 -14.1363
upperneck 23.2508 -14.9567 19.5769
head 10.5146 -6.24427 7.89732
rclavicle 1.56543e-015 -1.90833e-014
rhumerus -33.7314 15.402 -77.9055
rradius 52.1284
rwrist 12.7583
rhand -9.81166 -53.0552
rfingers 7.12502
rthumb 16.165 -442.401
lclavicle 1.56543e-015 -1.90833e-014
lhumerus -65.7613 -0.655822 86.2281
lradius 29.7032
lwrist -28.5862
lhand 8.06561 -26.7669
lfingers 7.12502
lthumb 33.2894 0.171765
rfemur 16.957 15.3667 37.4503
rtibia 4.77083e-015
rfoot -12.0707 -25.9999
rtoes 12.0086
lfemur -36.2105 -24.9353 -4.76944
ltibia 28.561
lfoot -20.8653 29.239
ltoes -29.1345
1056
root 12.5276 15.15 -36.5614 1.12113 75.156 -362.084
lowerback 8.29476 2.95062 4.18064
upperback -2.33514 4.5551 1.87335
thorax -6.94218 2.10793 -1.01351
lowerneck -3.07791 -9.33008 -13.6385
upperneck 23.1583 -15.1741 19.3608
head 10.4665 -6.32062 7.68222
rclavicle -5.76724e-014 -3.26007e-014
rhumerus -33.4935 15.4102 -77.8955
rradius 51.9443
rwrist 12.5347
rhand -9.67711 -53.5048
rfingers 7.12502
rthumb 16.2946 -442.84
lclavicle -5.76724e-014 -3.26007e-014
lhumerus -65.4258 -0.666738 85.6293
lradius 29.6657
lwrist -28.1881
lhand 8.81808 -26.7904
lfingers 7.12502
lthumb 34.0045 -0.00765901
rfemur 17.9129 15.0115 37.7882
rtibia -3.18055e-015
rfoot -11.9164 -25.4939
rtoes 10.6124
lfemur -37.252 -28.8034 -2.06084
ltibia 27.4375
lfoot -19.8343 32.894
ltoes -34.4215
